<?xml version="1.0" encoding="utf-8"?>
<!-- Generator: Adobe Illustrator 24.1.1, SVG Export Plug-In . SVG Version: 6.00 Build 0)  -->
<svg version="1.1" xmlns="http://www.w3.org/2000/svg" xmlns:xlink="http://www.w3.org/1999/xlink" x="0px" y="0px"
	 viewBox="0 0 1122 1122" style="enable-background:new 0 0 1122 1122;" xml:space="preserve">
<style type="text/css">
	.st0{fill:#FFFFFF;}
	.st1{fill:#FAEDD3;}
	.st2{fill:#EEC36B;}
	.st3{fill:#812124;}
	.st4{fill:#65191A;}
	.st5{opacity:0.1;}
	.st6{fill:#000100;}
	.st7{fill:#FFFCE3;}
	.st8{fill:#B5252B;}
	.st9{fill:#EBB95C;}
</style>
<g id="BG">
	<rect class="st0" width="1122" height="1122"/>
</g>
<g id="Object">
	<g>
		<g>
			<path class="st1" d="M655.56,341.8c5.04,0.57,10.29-0.24,15.15-2.63c13.15-6.47,18.41-22.05,11.74-34.8
				c-5.94-11.36-19.34-16.63-31.49-13.08c-0.27-4.13-1.39-8.27-3.44-12.2c-8.09-15.46-27.57-21.64-43.52-13.8
				c-15.95,7.84-22.32,26.73-14.23,42.19c2.47,4.73,6.02,8.59,10.2,11.44c-7.47,9.03-9.27,21.81-3.52,32.81
				c7.84,14.98,26.72,20.97,42.18,13.37C648.26,360.37,654.29,351.47,655.56,341.8z"/>
			<path class="st2" d="M638.62,365.12c9.64-4.74,15.67-13.65,16.94-23.31c5.04,0.57,10.29-0.24,15.15-2.63
				c7.88-3.88,12.92-11.03,14.27-18.88c-3.04,3.52-6.85,6.52-11.34,8.73c-9.77,4.8-20.73,4.87-30.11,1.11
				c-2.41,9.57-8.94,18.1-18.71,22.9c-8.38,4.12-17.64,4.76-26.03,2.48C607.61,367.68,624.54,372.04,638.62,365.12z"/>
		</g>
		<g>
			<path class="st1" d="M565.12,316.32c2.47,0.07,5-0.16,7.52-0.71c16.12-3.53,26.24-19.01,22.61-34.58
				c-3.39-14.54-17.56-24.01-32.55-22.33c0.23-2.42,0.08-4.91-0.5-7.4c-2.98-12.8-16.14-20.82-29.38-17.92
				c-13.21,2.89-21.52,15.56-18.6,28.32c-8.54,3.15-13.61,11.96-11.55,20.82c2.08,8.94,10.7,14.8,19.9,13.97
				c-5.11,5.54-7.47,13.28-5.66,21.06c2.98,12.8,16.14,20.82,29.38,17.92C556.28,333.27,563.47,325.5,565.12,316.32z M536.2,288.99
				c-0.05,0.01-0.11,0.02-0.16,0.03c0.05-0.07,0.1-0.14,0.15-0.21C536.2,288.87,536.2,288.93,536.2,288.99z"/>
			<g>
				<path class="st2" d="M546.29,335.46c9.99-2.19,17.17-9.96,18.83-19.14c2.47,0.07,5-0.16,7.52-0.71
					c16.12-3.53,26.24-19.01,22.61-34.58c-0.8-3.42-2.2-6.56-4.06-9.34c0.16,0.53,0.31,1.07,0.44,1.62
					c3.3,14.18-5.92,28.29-20.6,31.5c-5.84,1.28-11.65,0.63-16.76-1.49c2.79,12.97-5.69,25.76-19.11,28.71
					c-1.53,0.34-3.06,0.52-4.58,0.58c-0.48,0.19-0.96,0.38-1.45,0.56C534.19,335.82,540.23,336.79,546.29,335.46z"/>
			</g>
		</g>
		<g>
			<path class="st3" d="M801.33,416.18c0.02-13.31-11.09-24.12-24.82-24.14c-12-0.02-22.01,8.21-24.36,19.16
				c-1.68-11.71-12.04-20.73-24.58-20.74c-13.73-0.02-24.88,10.75-24.9,24.06c0,0.25,0.01,0.5,0.02,0.75h-0.04
				c0.02-0.46,0.02-0.72,0.02-0.75c0.02-13.1-10.92-23.37-24.43-23.39c-13.51-0.02-24.49,10.58-24.51,23.69
				c0,0.13,0.01,0.25,0.01,0.38h-0.03c0.01-0.25,0.02-0.5,0.02-0.75c0.02-13.31-11.09-24.12-24.82-24.14
				c-13.73-0.02-24.88,10.75-24.9,24.06c0,0.25,0.01,0.5,0.02,0.75H604c0-0.23,0-0.36,0-0.38c0.02-13.1-10.92-23.74-24.43-23.76
				c-13.52-0.02-24.49,10.58-24.51,23.69c0,0.13,0.01,0.25,0.01,0.38h-0.03c0.01-0.25,0.02-0.5,0.02-0.75
				c0.02-13.31-11.09-24.12-24.82-24.14c-13.73-0.02-24.88,10.75-24.9,24.06c0,0.25,0.01,0.5,0.02,0.75h-0.03
				c0-0.13,0.01-0.25,0.01-0.38c0.02-13.1-10.92-23.74-24.43-23.76c-13.52-0.02-24.49,10.58-24.51,23.69c0,0.02,0,0.15,0.01,0.38
				h-0.03c0.01-0.25,0.02-0.5,0.02-0.75c0.02-13.31-11.09-24.12-24.82-24.14c-13.73-0.02-24.88,10.75-24.9,24.06
				c0,0.25,0.01,0.5,0.02,0.75h-0.03c0-0.12,0.01-0.25,0.01-0.38c0.02-13.1-10.92-23.74-24.43-23.76
				c-13.52-0.02-24.49,10.58-24.51,23.69c0,1.75,26.79,411.48,32.61,500.53c-0.01,0-0.02,0-0.02,0l0.85,12.72
				c0.18,2.77,0.28,4.23,0.28,4.23l41.95,0.06l-0.01-0.14l41.95,0.06c0,0.09,0,0.14,0,0.14l41.17,0.06l0-0.14l41.95,0.07l0,0.14
				l41.95,0.07c0,0,0-0.05,0-0.14l41.95,0.07l0,0.14l41.95,0.07c0,0,0-0.05,0-0.14l41.95,0.06l-0.01,0.14l41.17,0.06
				c0,0,0-0.05,0.01-0.14l0.14,0l0.02-0.24h0.22l19.93-308.34c0,0-0.01,0.02-0.01,0.03C794.97,514.08,801.33,417.09,801.33,416.18z"
				/>
			<polygon class="st4" points="769.41,932.05 737.51,960.62 770.98,444.75 801.32,419.19 			"/>
		</g>
		<g>
			<path class="st1" d="M668.59,366.35c-0.85-5.66-3.37-11.15-7.6-15.72c-11.45-12.39-31.1-13.43-43.88-2.33
				c-11.38,9.89-13.47,26.08-5.7,38.26c-4.71,1.54-9.18,4-13.11,7.42c-15.5,13.46-16.8,36.56-2.91,51.58
				c13.89,15.02,37.71,16.29,53.21,2.82c4.74-4.12,8.15-9.14,10.2-14.56c12.72,5.43,28.08,3.55,39.1-6.03
				c15.02-13.05,16.28-35.43,2.82-49.99C692.32,368.72,680.18,364.83,668.59,366.35z"/>
			<path class="st2" d="M700.72,377.8c-8.4-9.08-20.54-12.97-32.13-11.45c-0.85-5.66-3.37-11.15-7.6-15.72
				c-6.87-7.43-16.67-10.77-26.18-9.87c5,2.25,9.62,5.5,13.54,9.73c8.51,9.2,11.88,21.12,10.34,32.49
				c11.82-0.25,23.67,4.3,32.18,13.51c7.3,7.9,10.83,17.79,10.7,27.62C713.02,410.83,712.98,391.07,700.72,377.8z"/>
		</g>
		<g>
			<path class="st1" d="M539.43,477.85c5.67,1.58,11.87,1.61,17.91-0.25c16.36-5.02,25.42-21.95,20.24-37.82
				c-4.61-14.13-18.97-22.63-33.62-20.78c0.49-4.79,0.02-9.75-1.58-14.63c-6.28-19.23-27.46-29.89-47.29-23.8
				c-19.84,6.09-30.83,26.62-24.55,45.85c1.92,5.89,5.24,10.96,9.49,15.01c-10.33,9-14.89,23.35-10.42,37.03
				c6.09,18.64,26.61,28.96,45.83,23.06C527.44,497.84,536.1,488.71,539.43,477.85z"/>
			<path class="st2" d="M515.45,501.52c11.99-3.68,20.64-12.81,23.98-23.68c5.67,1.58,11.87,1.61,17.91-0.25
				c9.81-3.01,16.99-10.3,20.05-19.07c-4.18,3.49-9.13,6.24-14.72,7.96c-12.15,3.73-24.75,1.81-34.79-4.23
				c-4.63,10.55-13.79,19.15-25.94,22.88c-10.43,3.2-21.18,2.24-30.37-1.91C479.34,498.8,497.93,506.9,515.45,501.52z"/>
		</g>
		<g>
			<path class="st1" d="M432.68,381.09c0.82-3.05,1.25-6.24,1.26-9.53c0.04-21.01-17.5-38.06-39.17-38.1
				c-20.23-0.03-36.9,14.79-39.05,33.85c-3.13-0.99-6.47-1.53-9.94-1.54c-17.81-0.03-32.26,13.94-32.29,31.21
				c-0.03,17.22,14.31,31.2,32.05,31.3c1.68,11.5,11.86,20.36,24.19,20.38c12.43,0.02,22.71-8.96,24.29-20.6
				c5.83,7.94,15.4,13.13,26.22,13.15c17.81,0.03,32.26-13.94,32.29-31.21C452.54,396.97,444.35,385.8,432.68,381.09z
				 M388.07,408.97c0,0.07,0,0.14-0.01,0.21c-0.08-0.09-0.15-0.17-0.23-0.25C387.91,408.95,387.99,408.96,388.07,408.97z"/>
			<g>
				<path class="st2" d="M452.52,409.99c0.02-13.02-8.17-24.19-19.84-28.91c0.82-3.05,1.25-6.24,1.26-9.53
					c0.04-21.01-17.5-38.06-39.17-38.1c-4.76-0.01-9.32,0.82-13.54,2.32c0.75-0.04,1.51-0.08,2.27-0.07
					c19.74,0.03,35.71,15.57,35.68,34.7c-0.01,7.61-2.56,14.63-6.86,20.34c17.98,0.32,32.44,14.55,32.41,32.05
					c0,2-0.2,3.95-0.57,5.84c0.12,0.65,0.22,1.31,0.31,1.96C449.47,425.1,452.51,417.89,452.52,409.99z"/>
			</g>
		</g>
		<g>
			<path class="st1" d="M598.94,373.81c0.82-3.05,1.25-6.24,1.26-9.53c0.03-21.01-17.5-38.06-39.17-38.1
				c-20.23-0.03-36.9,14.79-39.05,33.85c-3.13-0.99-6.47-1.53-9.94-1.54c-17.81-0.03-32.26,13.95-32.29,31.21
				c-0.03,17.22,14.31,31.2,32.05,31.3c1.68,11.5,11.86,20.36,24.19,20.38c12.43,0.02,22.71-8.96,24.29-20.6
				c5.83,7.94,15.4,13.13,26.22,13.14c17.81,0.03,32.26-13.94,32.29-31.21C618.81,389.7,610.61,378.53,598.94,373.81z M554.33,401.7
				c0,0.07,0,0.14-0.01,0.21c-0.08-0.08-0.15-0.17-0.23-0.25C554.17,401.67,554.25,401.68,554.33,401.7z"/>
			<g>
				<path class="st2" d="M618.78,402.72c0.02-13.02-8.17-24.19-19.84-28.91c0.82-3.05,1.25-6.24,1.26-9.53
					c0.03-21.01-17.5-38.06-39.17-38.1c-4.76-0.01-9.32,0.82-13.54,2.32c0.75-0.05,1.51-0.08,2.28-0.07
					c19.74,0.03,35.71,15.57,35.68,34.7c-0.01,7.61-2.56,14.63-6.86,20.34c17.98,0.32,32.44,14.55,32.41,32.05
					c0,2-0.2,3.95-0.57,5.84c0.12,0.65,0.22,1.31,0.31,1.96C615.73,417.82,618.77,410.62,618.78,402.72z"/>
			</g>
		</g>
		<g>
			<path class="st1" d="M505.15,310.2c1.41-2.46,2.54-5.12,3.31-7.97c4.91-18.16-6.29-36.74-25.02-41.5
				c-17.49-4.45-35.35,4.73-41.64,20.74c-2.48-1.54-5.24-2.74-8.24-3.5c-15.39-3.91-31.14,5.01-35.18,19.93
				c-4.03,14.88,5.12,30.11,20.44,34.07c-1.22,10.31,5.52,20.19,16.18,22.9c10.75,2.73,21.72-2.79,25.79-12.51
				c3.2,8.14,10.26,14.72,19.62,17.1c15.39,3.91,31.14-5.01,35.18-19.93C518.64,328.28,514.15,316.83,505.15,310.2z M460.09,324.57
				c-0.02,0.06-0.04,0.12-0.05,0.18c-0.05-0.09-0.09-0.18-0.14-0.27C459.96,324.51,460.03,324.54,460.09,324.57z"/>
			<g>
				<path class="st2" d="M515.59,339.53c3.04-11.25-1.45-22.7-10.44-29.33c1.41-2.46,2.54-5.12,3.31-7.97
					c4.91-18.16-6.29-36.74-25.02-41.5c-4.11-1.05-8.25-1.33-12.25-0.96c0.66,0.13,1.32,0.27,1.98,0.43
					c17.06,4.34,27.26,21.26,22.79,37.8c-1.78,6.58-5.62,12.09-10.66,16.09c15.47,4.2,24.67,19.67,20.58,34.79
					c-0.47,1.73-1.1,3.37-1.85,4.93c-0.05,0.59-0.11,1.18-0.19,1.77C509.44,351.92,513.75,346.36,515.59,339.53z"/>
			</g>
		</g>
		<g>
			<path class="st1" d="M763,381.8c-1.8-6.42-6.14-12.18-12.57-15.74c-12.86-7.11-29.23-2.78-36.56,9.69
				c-4.85,8.23-4.54,17.95-0.06,25.65c-6.25,3.13-11.68,7.97-15.43,14.34c-10.32,17.52-4.03,39.83,14.05,49.83
				c18.07,10,41.09,3.9,51.4-13.62c2.15-3.65,3.57-7.51,4.32-11.43c13.76,3.49,28.75-2.21,36.14-14.75
				c8.83-14.99,3.45-34.08-12.02-42.64C782.94,377.98,772.09,377.83,763,381.8z"/>
			<path class="st2" d="M763,381.8c-1.8-6.42-6.14-12.18-12.57-15.74c-9.32-5.16-20.5-4.29-28.73,1.33
				c6.71-1.59,14.03-0.79,20.49,2.79c10.09,5.58,15.23,16.33,13.9,26.85c8.46-5.17,19.51-5.77,28.8-0.62
				c13.42,7.42,18.08,23.98,10.43,36.99c-0.82,1.39-1.75,2.67-2.76,3.86c4.72-2.67,8.81-6.54,11.72-11.48
				c8.83-14.99,3.45-34.08-12.02-42.64C782.94,377.98,772.09,377.83,763,381.8z"/>
		</g>
		<g>
			<path class="st1" d="M487.42,452.91c5.67,1.57,11.87,1.61,17.91-0.25c16.36-5.02,25.42-21.95,20.24-37.82
				c-4.61-14.13-18.97-22.63-33.62-20.78c0.49-4.79,0.01-9.75-1.58-14.63c-6.28-19.23-27.46-29.89-47.3-23.8
				c-19.84,6.09-30.83,26.62-24.55,45.85c1.92,5.88,5.24,10.96,9.49,15c-10.33,9-14.89,23.35-10.42,37.03
				c6.09,18.64,26.61,28.96,45.83,23.06C475.43,472.91,484.09,463.78,487.42,452.91z"/>
			<path class="st2" d="M463.44,476.59c11.99-3.68,20.64-12.81,23.98-23.67c5.67,1.57,11.87,1.61,17.91-0.25
				c9.81-3.01,16.99-10.3,20.05-19.07c-4.18,3.49-9.13,6.24-14.72,7.96c-12.15,3.73-24.75,1.81-34.79-4.23
				c-4.63,10.55-13.79,19.15-25.94,22.88c-10.43,3.2-21.18,2.24-30.37-1.91C427.34,473.87,445.92,481.97,463.44,476.59z"/>
		</g>
		<g class="st5">
			<path class="st6" d="M776.36,436.44c0.02-13.31-11.09-24.12-24.82-24.14c-12-0.02-22.01,8.21-24.36,19.16
				c-1.68-11.71-12.03-20.73-24.58-20.74c-13.73-0.02-24.88,10.75-24.9,24.06c0,0.25,0.01,0.5,0.02,0.75h-0.04
				c0.01-0.45,0.02-0.72,0.02-0.75c0.02-13.1-10.92-23.36-24.43-23.39c-13.52-0.02-24.49,10.58-24.51,23.69
				c0,0.13,0.01,0.25,0.01,0.38h-0.03c0.01-0.25,0.02-0.5,0.02-0.75c0.02-13.31-11.09-24.12-24.82-24.14
				c-13.73-0.02-24.88,10.75-24.9,24.06c0,0.25,0.01,0.5,0.02,0.75l-0.02,0c0-0.22,0-0.36,0-0.38c0.02-13.1-10.92-23.74-24.43-23.76
				c-13.52-0.02-24.49,10.59-24.51,23.69c0,0.13,0.01,0.25,0.01,0.38h-0.03c0.01-0.25,0.02-0.5,0.02-0.75
				c0.02-13.31-11.09-24.12-24.82-24.14c-13.73-0.02-24.88,10.75-24.9,24.06c0,0.25,0.01,0.5,0.02,0.75h-0.03
				c0-0.13,0.01-0.25,0.01-0.38c0.02-13.1-10.92-23.74-24.43-23.76c-13.52-0.02-24.49,10.58-24.51,23.69c0,0.02,0,0.16,0.01,0.38
				h-0.03c0.01-0.25,0.02-0.5,0.02-0.75c0.02-13.31-11.09-24.12-24.82-24.14c-13.73-0.02-24.88,10.75-24.9,24.06
				c0,0.25,0.01,0.5,0.02,0.75h-0.03c0-0.13,0.01-0.25,0.01-0.38c0.02-13.1-10.92-23.74-24.43-23.76
				c-13.52-0.02-24.49,10.58-24.51,23.69c0,1.75,26.79,411.49,32.61,500.53c-0.01,0-0.02,0-0.03,0l0.86,12.72
				c0.18,2.76,0.28,4.23,0.28,4.23l41.95,0.06l-0.01-0.14l41.95,0.06c0,0.08,0,0.14,0,0.14l41.17,0.06l0-0.14l41.95,0.06l0,0.14
				l41.95,0.06c0,0,0-0.05,0-0.14l41.95,0.06l0,0.14l41.95,0.06c0,0,0-0.05,0-0.14l41.95,0.07l-0.01,0.14l41.17,0.06
				c0,0,0-0.05,0.01-0.14h0.14l0.02-0.24h0.22l19.93-308.34c0,0-0.01,0.02-0.01,0.03C770.01,534.34,776.36,437.34,776.36,436.44z"/>
		</g>
		<g>
			<path class="st7" d="M722.02,443.92c0.01-0.25,0.02-0.5,0.02-0.75c0.02-13.31-11.09-24.12-24.82-24.14
				c-13.73-0.02-24.88,10.75-24.9,24.06c0,0.25,0.01,0.5,0.02,0.75l-48.98-0.08c0.01-0.25,0.02-0.5,0.02-0.75
				c0.02-13.31-11.09-24.12-24.82-24.14c-13.73-0.02-24.88,10.75-24.9,24.06c0,0.25,0.01,0.5,0.02,0.75l-48.98-0.08
				c0.01-0.25,0.02-0.5,0.02-0.75c0.02-13.31-11.09-24.12-24.82-24.14c-13.73-0.02-24.88,10.75-24.9,24.06
				c0,0.25,0.01,0.5,0.02,0.75l-48.98-0.08c0.01-0.25,0.02-0.5,0.02-0.75c0.02-13.31-11.09-24.12-24.82-24.14
				c-13.73-0.02-24.88,10.75-24.9,24.06c0,0.25,0.01,0.5,0.02,0.75l-48.32-0.07l33.92,516.97l375.31,0.58L770.4,444L722.02,443.92z"
				/>
			<g>
				<path class="st8" d="M376.31,443.77c0.01-0.25,0.02-0.5,0.02-0.75c0.02-13.1-10.92-23.74-24.43-23.76
					c-13.52-0.02-24.49,10.58-24.51,23.69c0,1.97,33.72,517.48,33.72,517.48l41.95,0.06L376.31,443.77z"/>
				<path class="st8" d="M474.98,443.92c0.01-0.25,0.02-0.5,0.02-0.75c0.02-13.1-10.92-23.74-24.43-23.76
					c-13.52-0.02-24.49,10.59-24.51,23.69c0,1.71,18.96,517.46,18.96,517.46l41.17,0.06L474.98,443.92z"/>
				<path class="st8" d="M549.23,419.56c-13.52-0.02-24.49,10.58-24.51,23.69c0,0.25,0.01,0.5,0.02,0.75l3.41,516.68l41.95,0.06
					c0,0,3.56-515.96,3.57-517.42C573.68,430.22,562.74,419.58,549.23,419.56z"/>
				<path class="st8" d="M647.89,419.71c-13.52-0.02-24.49,10.58-24.51,23.69c0,0.25,0.01,0.5,0.02,0.75l-11.35,516.66l41.95,0.06
					c0,0,18.32-516.1,18.33-517.78C672.34,429.99,661.4,419.73,647.89,419.71z"/>
				<path class="st8" d="M770.98,444.75c0.02-13.31-11.09-24.12-24.82-24.14c-13.6-0.02-24.66,10.55-24.89,23.69l-25.33,516.64
					l41.17,0.06C737.12,961,770.98,446.85,770.98,444.75z"/>
			</g>
			<g class="st5">
				
					<ellipse transform="matrix(1.441261e-03 -1 1 1.441261e-03 -148.3254 1245.6626)" class="st6" cx="549.57" cy="697.1" rx="108.08" ry="155"/>
			</g>
			<path class="st9" d="M703.66,690.56c-0.1,59.69-69.57,107.97-155.18,107.84c-85.61-0.13-154.92-48.63-154.83-108.32
				c0.1-59.69,69.57-107.97,155.18-107.84C634.44,582.37,703.76,630.87,703.66,690.56z"/>
			<g class="st5">
				<path class="st6" d="M757.43,652.28c0,0-87.95,245.98-397.46,291.19l1.12,16.57l376.41,0.58L757.43,652.28z"/>
			</g>
		</g>
		<g>
			<path class="st1" d="M706.71,370.98c1.07,4.82,3.55,9.4,7.46,13.11c10.58,10.03,27.55,9.84,37.89-0.42
				c9.21-9.14,10.05-23.18,2.65-33.23c3.96-1.58,7.66-3.95,10.84-7.11c12.54-12.44,12.3-32.38-0.53-44.54
				c-12.83-12.16-33.4-11.93-45.94,0.52c-3.84,3.81-6.47,8.32-7.92,13.09c-11.26-3.96-24.36-1.5-33.28,7.35
				c-12.15,12.06-11.92,31.38,0.51,43.16C686.16,370.26,696.83,372.94,706.71,370.98z"/>
			<path class="st2" d="M678.4,362.91c7.76,7.35,18.43,10.02,28.31,8.07c1.07,4.82,3.55,9.4,7.46,13.11
				c6.34,6.01,14.98,8.34,23.11,7.04c-4.43-1.66-8.6-4.2-12.22-7.63c-7.86-7.45-11.47-17.52-10.8-27.37
				c-10.15,0.87-20.62-2.39-28.48-9.84c-6.74-6.39-10.36-14.71-10.83-23.17C665.88,335.18,667.07,352.18,678.4,362.91z"/>
		</g>
		<g>
			<path class="st1" d="M661.79,252.66c1.25,4.15,3.74,8.01,7.41,11.01c9.93,8.12,24.77,6.89,33.14-2.74
				c7.46-8.58,7.26-20.93,0.11-29.26c3.36-1.63,6.44-3.94,9.02-6.9c10.15-11.68,8.62-29.12-3.43-38.96
				c-12.04-9.84-30.04-8.35-40.19,3.32c-3.11,3.57-5.11,7.69-6.06,11.96c-10.12-2.77-21.43,0.21-28.65,8.51
				c-9.84,11.32-8.35,28.22,3.32,37.76C643.74,253.31,653.26,254.99,661.79,252.66z"/>
			<path class="st2" d="M636.46,247.36c7.28,5.95,16.8,7.62,25.33,5.3c1.25,4.15,3.74,8.01,7.41,11.01
				c5.95,4.86,13.67,6.37,20.7,4.72c-3.99-1.18-7.81-3.14-11.21-5.91c-7.38-6.03-11.2-14.62-11.28-23.29
				c-8.83,1.4-18.21-0.81-25.59-6.83c-6.33-5.17-10.05-12.23-11.03-19.61C623.65,223.87,625.82,238.67,636.46,247.36z"/>
		</g>
		<g>
			<path class="st1" d="M413.99,244.53c2.47,0.07,5-0.15,7.52-0.71c16.12-3.53,26.24-19.01,22.61-34.58
				c-3.39-14.54-17.56-24.01-32.55-22.33c0.23-2.42,0.08-4.91-0.5-7.4c-2.98-12.79-16.13-20.82-29.38-17.92
				c-13.21,2.89-21.52,15.56-18.6,28.32c-8.54,3.15-13.61,11.96-11.55,20.82c2.08,8.94,10.7,14.8,19.89,13.97
				c-5.1,5.53-7.47,13.28-5.66,21.06c2.98,12.8,16.14,20.82,29.38,17.92C405.15,261.49,412.34,253.71,413.99,244.53z M385.08,217.2
				c-0.05,0.01-0.11,0.02-0.16,0.03c0.05-0.07,0.1-0.14,0.15-0.21C385.07,217.08,385.08,217.14,385.08,217.2z"/>
			<g>
				<path class="st2" d="M395.17,263.68c9.99-2.19,17.17-9.96,18.83-19.14c2.47,0.07,5-0.15,7.52-0.71
					c16.12-3.53,26.24-19.01,22.61-34.58c-0.8-3.42-2.2-6.56-4.06-9.34c0.16,0.53,0.31,1.07,0.44,1.62
					c3.3,14.18-5.92,28.29-20.6,31.5c-5.84,1.28-11.65,0.64-16.76-1.49c2.79,12.97-5.69,25.76-19.11,28.71
					c-1.53,0.34-3.06,0.52-4.58,0.58c-0.48,0.19-0.96,0.38-1.45,0.55C383.07,264.04,389.1,265.01,395.17,263.68z"/>
			</g>
		</g>
	</g>
</g>
</svg>
